{
copyright = "Copyright \U00A9 2013 by Shinji Pons. All rights reserved.";
date = "2013-12-02 21:40:35 +0000";
designer = "Shinji Pons";
designerURL = www.shinjipons.com;
familyName = "Modulo 40";
fontMaster = (
{
alignmentZones = (
"{1280, 10}",
"{0, -10}"
);
ascender = 1280;
capHeight = 1280;
customParameters = (
{
name = familyName;
value = "Modulo 06";
}
);
descender = 0;
guideLines = (
{
position = "{1534, 440}";
},
{
angle = 90;
position = "{920, -124}";
},
{
angle = 90;
position = "{520, -117}";
},
{
position = "{1533, 840}";
},
{
angle = 90;
position = "{80, -86}";
},
{
angle = 90;
position = "{960, -69}";
},
{
position = "{1520, 880}";
},
{
position = "{1510, 400}";
},
{
angle = 90;
position = "{1360, -75}";
},
{
angle = 90;
position = "{480, -90}";
}
);
horizontalStems = (
400
);
id = "940E2F63-624A-4C3D-A909-721782B4CF41";
verticalStems = (
400
);
weightValue = 6;
widthValue = 128;
xHeight = 1280;
}
);
glyphs = (
{
glyphname = A;
lastChange = "2014-01-05 16:11:30 +0000";
layers = (
{
layerId = "940E2F63-624A-4C3D-A909-721782B4CF41";
name = Regular;
paths = (
{
closed = 1;
nodes = (
"960 880 LINE",
"960 400 LINE",
"1360 400 LINE",
"1360 880 LINE"
);
},
{
closed = 1;
nodes = (
"80 440 LINE",
"80 400 LINE",
"480 400 LINE",
"480 440 LINE"
);
}
);
width = 1440;
}
);
unicode = 0041;
},
{
glyphname = B;
lastChange = "2014-01-05 16:11:30 +0000";
layers = (
{
layerId = "940E2F63-624A-4C3D-A909-721782B4CF41";
name = Regular;
paths = (
{
closed = 1;
nodes = (
"960 880 LINE",
"960 400 LINE",
"1360 400 LINE",
"1360 880 LINE"
);
},
{
closed = 1;
nodes = (
"80 880 LINE",
"80 400 LINE",
"480 400 LINE",
"480 880 LINE"
);
}
);
width = 1440;
}
);
unicode = 0042;
},
{
glyphname = C;
lastChange = "2014-01-05 16:11:30 +0000";
layers = (
{
layerId = "940E2F63-624A-4C3D-A909-721782B4CF41";
name = Regular;
paths = (
{
closed = 1;
nodes = (
"80 880 LINE",
"80 400 LINE",
"480 400 LINE",
"480 880 LINE"
);
}
);
width = 1440;
}
);
unicode = 0043;
},
{
glyphname = D;
lastChange = "2014-01-05 16:11:30 +0000";
layers = (
{
layerId = "940E2F63-624A-4C3D-A909-721782B4CF41";
name = Regular;
paths = (
{
closed = 1;
nodes = (
"960 880 LINE",
"960 400 LINE",
"1360 400 LINE",
"1360 880 LINE"
);
},
{
closed = 1;
nodes = (
"80 440 LINE",
"80 400 LINE",
"480 400 LINE",
"480 440 LINE"
);
}
);
width = 1440;
}
);
unicode = 0044;
},
{
glyphname = E;
lastChange = "2014-01-05 16:11:30 +0000";
layers = (
{
layerId = "940E2F63-624A-4C3D-A909-721782B4CF41";
name = Regular;
paths = (
{
closed = 1;
nodes = (
"80 880 LINE",
"80 400 LINE",
"480 400 LINE",
"480 880 LINE"
);
},
{
closed = 1;
nodes = (
"960 880 LINE",
"960 840 LINE",
"1360 840 LINE",
"1360 880 LINE"
);
}
);
width = 1440;
}
);
unicode = 0045;
},
{
glyphname = F;
lastChange = "2014-01-05 16:11:30 +0000";
layers = (
{
layerId = "940E2F63-624A-4C3D-A909-721782B4CF41";
name = Regular;
paths = (
{
closed = 1;
nodes = (
"80 880 LINE",
"80 400 LINE",
"480 400 LINE",
"480 880 LINE"
);
}
);
width = 1440;
}
);
unicode = 0046;
},
{
glyphname = H;
lastChange = "2014-01-05 16:11:30 +0000";
layers = (
{
layerId = "940E2F63-624A-4C3D-A909-721782B4CF41";
name = Regular;
paths = (
{
closed = 1;
nodes = (
"960 880 LINE",
"960 400 LINE",
"1360 400 LINE",
"1360 880 LINE"
);
},
{
closed = 1;
nodes = (
"80 880 LINE",
"80 400 LINE",
"480 400 LINE",
"480 880 LINE"
);
}
);
width = 1440;
}
);
unicode = 0048;
},
{
glyphname = I;
lastChange = "2014-01-05 16:11:30 +0000";
layers = (
{
layerId = "940E2F63-624A-4C3D-A909-721782B4CF41";
name = Regular;
paths = (
{
closed = 1;
nodes = (
"520 880 LINE",
"520 400 LINE",
"920 400 LINE",
"920 880 LINE"
);
}
);
width = 1440;
}
);
unicode = 0049;
},
{
glyphname = J;
lastChange = "2014-01-05 16:11:30 +0000";
layers = (
{
layerId = "940E2F63-624A-4C3D-A909-721782B4CF41";
name = Regular;
paths = (
{
closed = 1;
nodes = (
"960 880 LINE",
"960 400 LINE",
"1360 400 LINE",
"1360 880 LINE"
);
}
);
width = 1440;
}
);
unicode = 004A;
},
{
glyphname = K;
lastChange = "2014-01-05 16:11:30 +0000";
layers = (
{
layerId = "940E2F63-624A-4C3D-A909-721782B4CF41";
name = Regular;
paths = (
{
closed = 1;
nodes = (
"80 880 LINE",
"80 400 LINE",
"480 400 LINE",
"480 880 LINE"
);
},
{
closed = 1;
nodes = (
"520 880 LINE",
"520 840 LINE",
"920 840 LINE",
"920 880 LINE"
);
},
{
closed = 1;
nodes = (
"960 440 LINE",
"960 400 LINE",
"1360 400 LINE",
"1360 440 LINE"
);
}
);
width = 1440;
}
);
unicode = 004B;
},
{
glyphname = L;
lastChange = "2014-01-05 16:11:30 +0000";
layers = (
{
layerId = "940E2F63-624A-4C3D-A909-721782B4CF41";
name = Regular;
paths = (
{
closed = 1;
nodes = (
"80 880 LINE",
"80 400 LINE",
"480 400 LINE",
"480 880 LINE"
);
}
);
width = 1440;
}
);
unicode = 004C;
},
{
glyphname = M;
lastChange = "2014-01-05 16:11:30 +0000";
layers = (
{
layerId = "940E2F63-624A-4C3D-A909-721782B4CF41";
name = Regular;
paths = (
{
closed = 1;
nodes = (
"960 880 LINE",
"960 400 LINE",
"1360 400 LINE",
"1360 880 LINE"
);
},
{
closed = 1;
nodes = (
"80 880 LINE",
"80 400 LINE",
"480 400 LINE",
"480 880 LINE"
);
},
{
closed = 1;
nodes = (
"520 880 LINE",
"520 400 LINE",
"920 400 LINE",
"920 880 LINE"
);
}
);
width = 1440;
}
);
unicode = 004D;
},
{
glyphname = N;
lastChange = "2014-01-05 16:11:30 +0000";
layers = (
{
layerId = "940E2F63-624A-4C3D-A909-721782B4CF41";
name = Regular;
paths = (
{
closed = 1;
nodes = (
"960 880 LINE",
"960 400 LINE",
"1360 400 LINE",
"1360 880 LINE"
);
},
{
closed = 1;
nodes = (
"80 880 LINE",
"80 400 LINE",
"480 400 LINE",
"480 880 LINE"
);
},
{
closed = 1;
nodes = (
"520 880 LINE",
"520 400 LINE",
"920 400 LINE",
"920 880 LINE"
);
}
);
width = 1440;
}
);
unicode = 004E;
},
{
glyphname = O;
lastChange = "2014-01-05 16:11:30 +0000";
layers = (
{
layerId = "940E2F63-624A-4C3D-A909-721782B4CF41";
name = Regular;
paths = (
{
closed = 1;
nodes = (
"960 880 LINE",
"960 400 LINE",
"1360 400 LINE",
"1360 880 LINE"
);
},
{
closed = 1;
nodes = (
"80 880 LINE",
"80 400 LINE",
"480 400 LINE",
"480 880 LINE"
);
}
);
width = 1440;
}
);
unicode = 004F;
},
{
glyphname = P;
lastChange = "2014-01-05 16:11:30 +0000";
layers = (
{
layerId = "940E2F63-624A-4C3D-A909-721782B4CF41";
name = Regular;
paths = (
{
closed = 1;
nodes = (
"80 880 LINE",
"80 400 LINE",
"480 400 LINE",
"480 880 LINE"
);
},
{
closed = 1;
nodes = (
"960 880 LINE",
"960 840 LINE",
"1360 840 LINE",
"1360 880 LINE"
);
}
);
width = 1440;
}
);
unicode = 0050;
},
{
glyphname = Q;
lastChange = "2014-01-05 16:11:30 +0000";
layers = (
{
layerId = "940E2F63-624A-4C3D-A909-721782B4CF41";
name = Regular;
paths = (
{
closed = 1;
nodes = (
"960 880 LINE",
"960 400 LINE",
"1360 400 LINE",
"1360 880 LINE"
);
},
{
closed = 1;
nodes = (
"80 880 LINE",
"80 400 LINE",
"480 400 LINE",
"480 880 LINE"
);
},
{
closed = 1;
nodes = (
"520 440 LINE",
"520 400 LINE",
"920 400 LINE",
"920 440 LINE"
);
}
);
width = 1440;
}
);
unicode = 0051;
},
{
glyphname = R;
lastChange = "2014-01-05 16:11:30 +0000";
layers = (
{
layerId = "940E2F63-624A-4C3D-A909-721782B4CF41";
name = Regular;
paths = (
{
closed = 1;
nodes = (
"80 880 LINE",
"80 400 LINE",
"480 400 LINE",
"480 880 LINE"
);
},
{
closed = 1;
nodes = (
"520 440 LINE",
"520 400 LINE",
"920 400 LINE",
"920 440 LINE"
);
},
{
closed = 1;
nodes = (
"960 880 LINE",
"960 840 LINE",
"1360 840 LINE",
"1360 880 LINE"
);
}
);
width = 1440;
}
);
unicode = 0052;
},
{
glyphname = S;
lastChange = "2014-01-05 16:11:30 +0000";
layers = (
{
layerId = "940E2F63-624A-4C3D-A909-721782B4CF41";
name = Regular;
paths = (
{
closed = 1;
nodes = (
"960 440 LINE",
"960 400 LINE",
"1360 400 LINE",
"1360 440 LINE"
);
},
{
closed = 1;
nodes = (
"80 880 LINE",
"80 840 LINE",
"480 840 LINE",
"480 880 LINE"
);
}
);
width = 1440;
}
);
unicode = 0053;
},
{
glyphname = T;
lastChange = "2014-01-05 16:11:30 +0000";
layers = (
{
layerId = "940E2F63-624A-4C3D-A909-721782B4CF41";
name = Regular;
paths = (
{
closed = 1;
nodes = (
"520 880 LINE",
"520 400 LINE",
"920 400 LINE",
"920 880 LINE"
);
}
);
width = 1440;
}
);
unicode = 0054;
},
{
glyphname = U;
lastChange = "2014-01-05 16:11:30 +0000";
layers = (
{
layerId = "940E2F63-624A-4C3D-A909-721782B4CF41";
name = Regular;
paths = (
{
closed = 1;
nodes = (
"960 880 LINE",
"960 400 LINE",
"1360 400 LINE",
"1360 880 LINE"
);
},
{
closed = 1;
nodes = (
"80 880 LINE",
"80 400 LINE",
"480 400 LINE",
"480 880 LINE"
);
}
);
width = 1440;
}
);
unicode = 0055;
},
{
glyphname = V;
lastChange = "2014-01-05 16:11:30 +0000";
layers = (
{
layerId = "940E2F63-624A-4C3D-A909-721782B4CF41";
name = Regular;
paths = (
{
closed = 1;
nodes = (
"80 880 LINE",
"80 400 LINE",
"480 400 LINE",
"480 880 LINE"
);
},
{
closed = 1;
nodes = (
"520 440 LINE",
"520 400 LINE",
"920 400 LINE",
"920 440 LINE"
);
},
{
closed = 1;
nodes = (
"960 880 LINE",
"960 840 LINE",
"1360 840 LINE",
"1360 880 LINE"
);
}
);
width = 1440;
}
);
unicode = 0056;
},
{
glyphname = X;
lastChange = "2014-01-05 16:11:30 +0000";
layers = (
{
layerId = "940E2F63-624A-4C3D-A909-721782B4CF41";
name = Regular;
paths = (
{
closed = 1;
nodes = (
"520 880 LINE",
"520 400 LINE",
"920 400 LINE",
"920 880 LINE"
);
},
{
closed = 1;
nodes = (
"80 880 LINE",
"80 840 LINE",
"480 840 LINE",
"480 880 LINE"
);
},
{
closed = 1;
nodes = (
"960 440 LINE",
"960 400 LINE",
"1360 400 LINE",
"1360 440 LINE"
);
}
);
width = 1440;
}
);
unicode = 0058;
},
{
glyphname = Y;
lastChange = "2014-01-05 16:11:30 +0000";
layers = (
{
layerId = "940E2F63-624A-4C3D-A909-721782B4CF41";
name = Regular;
paths = (
{
closed = 1;
nodes = (
"960 880 LINE",
"960 400 LINE",
"1360 400 LINE",
"1360 880 LINE"
);
},
{
closed = 1;
nodes = (
"80 880 LINE",
"80 840 LINE",
"480 840 LINE",
"480 880 LINE"
);
}
);
width = 1440;
}
);
unicode = 0059;
},
{
glyphname = Z;
lastChange = "2014-01-05 16:11:30 +0000";
layers = (
{
layerId = "940E2F63-624A-4C3D-A909-721782B4CF41";
name = Regular;
paths = (
{
closed = 1;
nodes = (
"960 880 LINE",
"960 840 LINE",
"1360 840 LINE",
"1360 880 LINE"
);
},
{
closed = 1;
nodes = (
"80 440 LINE",
"80 400 LINE",
"480 400 LINE",
"480 440 LINE"
);
}
);
width = 1440;
}
);
unicode = 005A;
},
{
glyphname = one;
lastChange = "2014-01-05 16:11:30 +0000";
layers = (
{
layerId = "940E2F63-624A-4C3D-A909-721782B4CF41";
name = Regular;
paths = (
{
closed = 1;
nodes = (
"520 880 LINE",
"520 400 LINE",
"920 400 LINE",
"920 880 LINE"
);
}
);
width = 1440;
}
);
unicode = 0031;
},
{
glyphname = two;
lastChange = "2014-01-05 16:11:30 +0000";
layers = (
{
layerId = "940E2F63-624A-4C3D-A909-721782B4CF41";
name = Regular;
paths = (
{
closed = 1;
nodes = (
"960 880 LINE",
"960 840 LINE",
"1360 840 LINE",
"1360 880 LINE"
);
},
{
closed = 1;
nodes = (
"80 440 LINE",
"80 400 LINE",
"480 400 LINE",
"480 440 LINE"
);
}
);
width = 1440;
}
);
unicode = 0032;
},
{
glyphname = three;
lastChange = "2014-01-05 16:11:30 +0000";
layers = (
{
layerId = "940E2F63-624A-4C3D-A909-721782B4CF41";
name = Regular;
paths = (
{
closed = 1;
nodes = (
"960 880 LINE",
"960 400 LINE",
"1360 400 LINE",
"1360 880 LINE"
);
}
);
width = 1440;
}
);
unicode = 0033;
},
{
glyphname = four;
lastChange = "2014-01-05 16:11:30 +0000";
layers = (
{
layerId = "940E2F63-624A-4C3D-A909-721782B4CF41";
name = Regular;
paths = (
{
closed = 1;
nodes = (
"960 880 LINE",
"960 400 LINE",
"1360 400 LINE",
"1360 880 LINE"
);
},
{
closed = 1;
nodes = (
"80 880 LINE",
"80 840 LINE",
"480 840 LINE",
"480 880 LINE"
);
}
);
width = 1440;
}
);
unicode = 0034;
},
{
glyphname = seven;
lastChange = "2014-01-05 16:11:30 +0000";
layers = (
{
layerId = "940E2F63-624A-4C3D-A909-721782B4CF41";
name = Regular;
paths = (
{
closed = 1;
nodes = (
"960 880 LINE",
"960 840 LINE",
"1360 840 LINE",
"1360 880 LINE"
);
},
{
closed = 1;
nodes = (
"520 440 LINE",
"520 400 LINE",
"920 400 LINE",
"920 440 LINE"
);
}
);
width = 1440;
}
);
unicode = 0037;
},
{
glyphname = eight;
lastChange = "2014-01-05 16:11:30 +0000";
layers = (
{
layerId = "940E2F63-624A-4C3D-A909-721782B4CF41";
name = Regular;
paths = (
{
closed = 1;
nodes = (
"960 880 LINE",
"960 400 LINE",
"1360 400 LINE",
"1360 880 LINE"
);
},
{
closed = 1;
nodes = (
"80 880 LINE",
"80 400 LINE",
"480 400 LINE",
"480 880 LINE"
);
}
);
width = 1440;
}
);
unicode = 0038;
},
{
glyphname = backslash;
lastChange = "2014-01-05 16:11:30 +0000";
layers = (
{
layerId = "940E2F63-624A-4C3D-A909-721782B4CF41";
name = Regular;
paths = (
{
closed = 1;
nodes = (
"960 880 LINE",
"960 400 LINE",
"1360 400 LINE",
"1360 880 LINE"
);
},
{
closed = 1;
nodes = (
"80 880 LINE",
"80 400 LINE",
"480 400 LINE",
"480 880 LINE"
);
},
{
closed = 1;
nodes = (
"520 880 LINE",
"520 400 LINE",
"920 400 LINE",
"920 880 LINE"
);
}
);
width = 1440;
}
);
unicode = 005C;
},
{
glyphname = comma;
lastChange = "2014-01-05 16:11:30 +0000";
layers = (
{
layerId = "940E2F63-624A-4C3D-A909-721782B4CF41";
name = Regular;
paths = (
{
closed = 1;
nodes = (
"960 880 LINE",
"960 400 LINE",
"1360 400 LINE",
"1360 880 LINE"
);
},
{
closed = 1;
nodes = (
"80 880 LINE",
"80 400 LINE",
"480 400 LINE",
"480 880 LINE"
);
},
{
closed = 1;
nodes = (
"520 880 LINE",
"520 400 LINE",
"920 400 LINE",
"920 880 LINE"
);
}
);
width = 1440;
}
);
unicode = 002C;
},
{
glyphname = exclam;
lastChange = "2014-01-05 16:11:30 +0000";
layers = (
{
layerId = "940E2F63-624A-4C3D-A909-721782B4CF41";
name = Regular;
paths = (
{
closed = 1;
nodes = (
"960 880 LINE",
"960 840 LINE",
"1360 840 LINE",
"1360 880 LINE"
);
},
{
closed = 1;
nodes = (
"80 880 LINE",
"80 840 LINE",
"480 840 LINE",
"480 880 LINE"
);
},
{
closed = 1;
nodes = (
"520 880 LINE",
"520 840 LINE",
"920 840 LINE",
"920 880 LINE"
);
}
);
width = 1440;
}
);
unicode = 0021;
},
{
color = 1;
glyphname = numbersign;
lastChange = "2014-01-05 16:11:30 +0000";
layers = (
{
layerId = "940E2F63-624A-4C3D-A909-721782B4CF41";
name = Regular;
paths = (
{
closed = 1;
nodes = (
"960 880 LINE",
"960 400 LINE",
"1360 400 LINE",
"1360 880 LINE"
);
},
{
closed = 1;
nodes = (
"80 880 LINE",
"80 400 LINE",
"480 400 LINE",
"480 880 LINE"
);
},
{
closed = 1;
nodes = (
"520 880 LINE",
"520 400 LINE",
"920 400 LINE",
"920 880 LINE"
);
}
);
width = 1440;
}
);
unicode = 0023;
},
{
glyphname = question;
lastChange = "2014-01-05 16:11:30 +0000";
layers = (
{
layerId = "940E2F63-624A-4C3D-A909-721782B4CF41";
name = Regular;
paths = (
{
closed = 1;
nodes = (
"960 880 LINE",
"960 840 LINE",
"1360 840 LINE",
"1360 880 LINE"
);
}
);
width = 1440;
}
);
unicode = 003F;
},
{
glyphname = braceleft;
lastChange = "2014-01-05 16:11:30 +0000";
layers = (
{
layerId = "940E2F63-624A-4C3D-A909-721782B4CF41";
name = Regular;
paths = (
{
closed = 1;
nodes = (
"520 880 LINE",
"520 400 LINE",
"920 400 LINE",
"920 880 LINE"
);
}
);
width = 1440;
}
);
unicode = 007B;
},
{
color = 0;
glyphname = dollar;
lastChange = "2014-01-05 16:11:30 +0000";
layers = (
{
layerId = "940E2F63-624A-4C3D-A909-721782B4CF41";
name = Regular;
paths = (
{
closed = 1;
nodes = (
"520 880 LINE",
"520 400 LINE",
"920 400 LINE",
"920 880 LINE"
);
}
);
width = 1440;
}
);
unicode = 0024;
},
{
color = 0;
glyphname = euro;
lastChange = "2014-01-05 16:11:30 +0000";
layers = (
{
layerId = "940E2F63-624A-4C3D-A909-721782B4CF41";
name = Regular;
paths = (
{
closed = 1;
nodes = (
"520 880 LINE",
"520 840 LINE",
"920 840 LINE",
"920 880 LINE"
);
},
{
closed = 1;
nodes = (
"80 440 LINE",
"80 400 LINE",
"480 400 LINE",
"480 440 LINE"
);
}
);
width = 1440;
}
);
unicode = 20AC;
},
{
color = 0;
glyphname = sterling;
lastChange = "2014-01-05 16:11:30 +0000";
layers = (
{
layerId = "940E2F63-624A-4C3D-A909-721782B4CF41";
name = Regular;
paths = (
{
closed = 1;
nodes = (
"520 880 LINE",
"520 840 LINE",
"920 840 LINE",
"920 880 LINE"
);
},
{
closed = 1;
nodes = (
"80 440 LINE",
"80 400 LINE",
"480 400 LINE",
"480 440 LINE"
);
}
);
width = 1440;
}
);
unicode = 00A3;
},
{
color = 0;
glyphname = percent;
lastChange = "2014-01-05 16:11:30 +0000";
layers = (
{
layerId = "940E2F63-624A-4C3D-A909-721782B4CF41";
name = Regular;
paths = (
{
closed = 1;
nodes = (
"960 880 LINE",
"960 840 LINE",
"1360 840 LINE",
"1360 880 LINE"
);
},
{
closed = 1;
nodes = (
"80 440 LINE",
"80 400 LINE",
"480 400 LINE",
"480 440 LINE"
);
}
);
width = 1440;
}
);
unicode = 0025;
},
{
glyphname = plus;
lastChange = "2014-01-05 16:11:30 +0000";
layers = (
{
layerId = "940E2F63-624A-4C3D-A909-721782B4CF41";
name = Regular;
paths = (
{
closed = 1;
nodes = (
"520 880 LINE",
"520 400 LINE",
"920 400 LINE",
"920 880 LINE"
);
}
);
width = 1440;
}
);
unicode = 002B;
},
{
glyphname = ampersand;
lastChange = "2014-01-05 16:11:30 +0000";
layers = (
{
layerId = "940E2F63-624A-4C3D-A909-721782B4CF41";
name = Regular;
paths = (
{
closed = 1;
nodes = (
"960 880 LINE",
"960 840 LINE",
"1360 840 LINE",
"1360 880 LINE"
);
},
{
closed = 1;
nodes = (
"80 440 LINE",
"80 400 LINE",
"480 400 LINE",
"480 440 LINE"
);
},
{
closed = 1;
nodes = (
"520 880 LINE",
"520 840 LINE",
"920 840 LINE",
"920 880 LINE"
);
}
);
width = 1440;
}
);
unicode = 0026;
},
{
color = 0;
glyphname = asciicircum;
lastChange = "2014-01-05 16:11:30 +0000";
layers = (
{
layerId = "940E2F63-624A-4C3D-A909-721782B4CF41";
name = Regular;
paths = (
{
closed = 1;
nodes = (
"960 440 LINE",
"960 400 LINE",
"1360 400 LINE",
"1360 440 LINE"
);
},
{
closed = 1;
nodes = (
"80 440 LINE",
"80 400 LINE",
"480 400 LINE",
"480 440 LINE"
);
},
{
closed = 1;
nodes = (
"520 880 LINE",
"520 840 LINE",
"920 840 LINE",
"920 880 LINE"
);
}
);
width = 1440;
}
);
unicode = 005E;
},
{
glyphname = degree;
lastChange = "2014-01-05 16:11:30 +0000";
layers = (
{
layerId = "940E2F63-624A-4C3D-A909-721782B4CF41";
name = Regular;
paths = (
{
closed = 1;
nodes = (
"960 440 LINE",
"960 400 LINE",
"1360 400 LINE",
"1360 440 LINE"
);
},
{
closed = 1;
nodes = (
"80 880 LINE",
"80 840 LINE",
"480 840 LINE",
"480 880 LINE"
);
},
{
closed = 1;
nodes = (
"520 880 LINE",
"520 840 LINE",
"920 840 LINE",
"920 880 LINE"
);
}
);
width = 1440;
}
);
unicode = 00B0;
},
